<?xml version="1.0" encoding="utf-8"?>
<!-- Svg Vector Icons : http://www.onlinewebfonts.com/icon -->
<!DOCTYPE svg PUBLIC "-//W3C//DTD SVG 1.1//EN" "http://www.w3.org/Graphics/SVG/1.1/DTD/svg11.dtd">
<svg version="1.1" xmlns="http://www.w3.org/2000/svg" xmlns:xlink="http://www.w3.org/1999/xlink" x="0px" y="0px" viewBox="0 0 1000 1000" enable-background="new 0 0 1000 1000" xml:space="preserve">
<metadata> Svg Vector Icons : http://www.onlinewebfonts.com/icon </metadata>
<g><g transform="translate(0.000000,512.000000) scale(0.100000,-0.100000)"><path d="M4671.1,5006.4c-212.9-13.4-550.5-65.2-782.6-118.9l-105.5-23l-5.8-420.1c-3.8-393.2-1.9-418.2,28.8-404.8c78.6,30.7,433.5,107.4,629.2,138.1c289.7,44.1,845.9,44.1,1141.3-1.9C7312.5,3913,8674.4,2624,9019.7,918.7c299.2-1480.9-262.8-3034.6-1442.5-3988c-799.9-644.5-1862.6-980.2-2858.1-901.6C2235-3773.3,499-1500.2,984.3,922.5c149.6,751.9,567.8,1544.2,1070.4,2033.3l88.2,84.4v-636.8v-636.9h402.8h402.8v1218.1v1218.1H1730.5H512.4v-402.8V3397l420.1-3.8l418.2-5.7L1189.5,3186c-656-817.2-1012.8-1739.8-1080-2783.3C21.3-978.4,546.9-2357.7,1538.7-3345.5c1289-1287.1,3155.5-1753.3,4901.1-1223.8c554.4,166.9,1172,498.7,1649.7,882.4c824.8,661.8,1444.4,1653.5,1688,2698.9C9994.2-52,9921.3,989.7,9576,1872C9127.1,3023,8283.1,3951.4,7185.9,4500C6591.3,4799.2,5987,4962.3,5308,5008.3C5003,5029.4,4995.3,5029.4,4671.1,5006.4z"/><path d="M4598.2,1522.9c0-986,7.7-1479,21.1-1530.8c17.3-65.2,149.6-207.2,876.6-936.1l857.5-857.5l282,282l283.9,283.9l-757.7,757.7l-757.7,757.7v1348.5V2975H5001h-402.8V1522.9z"/></g></g>
</svg>