<?xml version="1.0" standalone="no"?>
<!DOCTYPE svg PUBLIC "-//W3C//DTD SVG 20010904//EN"
 "http://www.w3.org/TR/2001/REC-SVG-20010904/DTD/svg10.dtd">
<svg version="1.0" xmlns="http://www.w3.org/2000/svg"
 width="700.000000pt" height="700.000000pt" viewBox="0 0 700.000000 700.000000"
 preserveAspectRatio="xMidYMid meet">
<metadata>
Created by potrace 1.14, written by Peter Selinger 2001-2017
</metadata>
<g transform="translate(0.000000,700.000000) scale(0.100000,-0.100000)"
fill="#000000" stroke="none">
<path d="M3295 6923 c-157 -10 -600 -82 -633 -102 -9 -6 -13 -81 -15 -288 -1
-155 0 -283 3 -286 3 -3 46 6 96 18 315 80 487 99 834 92 276 -5 375 -18 609
-77 954 -241 1713 -938 2028 -1865 249 -734 189 -1528 -169 -2228 -200 -390
-498 -741 -849 -999 -316 -234 -746 -422 -1139 -501 -219 -44 -303 -52 -555
-52 -252 0 -336 8 -555 52 -876 175 -1622 744 -2014 1534 -295 593 -375 1221
-240 1869 103 492 371 1008 700 1348 l103 107 1 -447 0 -448 280 0 280 0 0
855 0 855 -850 0 -850 0 0 -285 0 -285 290 0 c160 0 290 -2 290 -5 0 -3 -42
-58 -93 -123 -186 -234 -296 -404 -412 -632 -411 -815 -477 -1783 -178 -2644
180 -517 459 -956 854 -1341 545 -530 1196 -845 1969 -952 159 -22 641 -25
800 -5 528 67 949 210 1387 474 251 151 451 306 648 503 488 488 821 1108 954
1780 43 217 55 367 55 650 0 290 -12 424 -59 662 -223 1145 -1024 2103 -2120
2536 -451 178 -974 261 -1450 230z"/>
<path d="M3221 4563 c0 -516 4 -988 7 -1049 6 -101 10 -115 37 -155 16 -24
290 -305 607 -624 l577 -580 198 197 198 198 -533 533 -532 532 0 943 0 942
-280 0 -280 0 1 -937z"/>
</g>
</svg>
